<svg xmlns="http://www.w3.org/2000/svg" viewBox="0 0 120 120">
  <defs>
    <radialGradient id="xm_pb_bg" cx="50%" cy="50%" r="50%">
      <stop offset="0%" stop-color="#192A51"/>
      <stop offset="100%" stop-color="#0C1529"/>
    </radialGradient>
  </defs>
  <circle cx="60" cy="60" r="58" fill="url(#xm_pb_bg)"/>
  <circle cx="36" cy="40" r="8" fill="#F1F5F9"/>
  <circle cx="36" cy="40" r="4.5" fill="#CBD5E1"/>
  <circle cx="84" cy="40" r="8" fill="#F1F5F9"/>
  <circle cx="84" cy="40" r="4.5" fill="#CBD5E1"/>
  <path d="M36,36 C36,20 84,20 84,36" stroke="#E63946" stroke-width="4" stroke-linecap="round" fill="none"/>
  <ellipse cx="33" cy="40" rx="6" ry="9" fill="#E63946"/>
  <ellipse cx="87" cy="40" rx="6" ry="9" fill="#E63946"/>
  <ellipse cx="60" cy="62" rx="27" ry="24" fill="#F8FAFC"/>
  <ellipse cx="60" cy="68" rx="12" ry="9" fill="#E2E8F0"/>
  <ellipse cx="60" cy="64" rx="4" ry="3" fill="#0F172A"/>
  <path d="M57,67 Q60,70 63,67" stroke="#0F172A" stroke-width="1.5" fill="none"/>
  <circle cx="49" cy="56" r="3.5" fill="#0F172A"/>
  <circle cx="71" cy="56" r="3.5" fill="#0F172A"/>
  <circle cx="50" cy="55" r="1.5" fill="#FFFFFF"/>
  <circle cx="72" cy="55" r="1.5" fill="#FFFFFF"/>
  <circle cx="43" cy="63" r="4" fill="#FDA4AF" opacity="0.6"/>
  <circle cx="77" cy="63" r="4" fill="#FDA4AF" opacity="0.6"/>
</svg>
